<svg width="17" height="10" viewBox="0 0 17 10" fill="none" xmlns="http://www.w3.org/2000/svg">
<path d="M0.293031 1.29308C0.480558 1.10561 0.734866 1.00029 1.00003 1.00029C1.26519 1.00029 1.5195 1.10561 1.70703 1.29308L8.00003 7.58608L14.293 1.29308C14.3853 1.19757 14.4956 1.12139 14.6176 1.06898C14.7396 1.01657 14.8709 0.988985 15.0036 0.987831C15.1364 0.986677 15.2681 1.01198 15.391 1.06226C15.5139 1.11254 15.6255 1.18679 15.7194 1.28069C15.8133 1.37458 15.8876 1.48623 15.9379 1.60913C15.9881 1.73202 16.0134 1.8637 16.0123 1.99648C16.0111 2.12926 15.9835 2.26048 15.9311 2.38249C15.8787 2.50449 15.8025 2.61483 15.707 2.70708L8.70703 9.70708C8.5195 9.89455 8.26519 9.99987 8.00003 9.99987C7.73487 9.99987 7.48056 9.89455 7.29303 9.70708L0.293031 2.70708C0.10556 2.51955 0.000244141 2.26525 0.000244141 2.00008C0.000244141 1.73492 0.10556 1.48061 0.293031 1.29308Z" fill="#41199E"/>
</svg>
